<?xml version="1.0" encoding="utf-8" standalone="no"?>
<!DOCTYPE svg PUBLIC "-//W3C//DTD SVG 1.1//EN"
  "http://www.w3.org/Graphics/SVG/1.1/DTD/svg11.dtd">
<svg xmlns:xlink="http://www.w3.org/1999/xlink" width="438.86125pt" height="251.19625pt" viewBox="0 0 438.86125 251.19625" xmlns="http://www.w3.org/2000/svg" version="1.1">
 <metadata>
  <rdf:RDF xmlns:dc="http://purl.org/dc/elements/1.1/" xmlns:cc="http://creativecommons.org/ns#" xmlns:rdf="http://www.w3.org/1999/02/22-rdf-syntax-ns#">
   <cc:Work>
    <dc:type rdf:resource="http://purl.org/dc/dcmitype/StillImage"/>
    <dc:date>2026-06-23T13:33:40.150504</dc:date>
    <dc:format>image/svg+xml</dc:format>
    <dc:creator>
     <cc:Agent>
      <dc:title>Matplotlib v3.10.8, https://matplotlib.org/</dc:title>
     </cc:Agent>
    </dc:creator>
   </cc:Work>
  </rdf:RDF>
 </metadata>
 <defs>
  <style type="text/css">*{stroke-linejoin: round; stroke-linecap: butt}</style>
 </defs>
 <g id="figure_1">
  <g id="patch_1">
   <path d="M 0 251.19625 
L 438.86125 251.19625 
L 438.86125 0 
L 0 0 
z
" style="fill: #ffffff"/>
  </g>
  <g id="axes_1">
   <g id="patch_2">
    <path d="M 43.78125 213.64 
L 431.66125 213.64 
L 431.66125 7.2 
L 43.78125 7.2 
z
" style="fill: #ffffff"/>
   </g>
   <g id="matplotlib.axis_1">
    <g id="xtick_1">
     <g id="line2d_1">
      <defs>
       <path id="md20ccec0fe" d="M 0 0 
L 0 3.5 
" style="stroke: #000000; stroke-width: 0.8"/>
      </defs>
      <g>
       <use xlink:href="#md20ccec0fe" x="61.412159" y="213.64" style="stroke: #000000; stroke-width: 0.8"/>
      </g>
     </g>
     <g id="text_1">
      <!-- 1 -->
      <g transform="translate(58.230909 228.238437) scale(0.1 -0.1)">
       <defs>
        <path id="DejaVuSans-31" d="M 794 531 
L 1825 531 
L 1825 4091 
L 703 3866 
L 703 4441 
L 1819 4666 
L 2450 4666 
L 2450 531 
L 3481 531 
L 3481 0 
L 794 0 
L 794 531 
z
" transform="scale(0.015625)"/>
       </defs>
       <use xlink:href="#DejaVuSans-31"/>
      </g>
     </g>
    </g>
    <g id="xtick_2">
     <g id="line2d_2">
      <g>
       <use xlink:href="#md20ccec0fe" x="111.786185" y="213.64" style="stroke: #000000; stroke-width: 0.8"/>
      </g>
     </g>
     <g id="text_2">
      <!-- 2 -->
      <g transform="translate(108.604935 228.238437) scale(0.1 -0.1)">
       <defs>
        <path id="DejaVuSans-32" d="M 1228 531 
L 3431 531 
L 3431 0 
L 469 0 
L 469 531 
Q 828 903 1448 1529 
Q 2069 2156 2228 2338 
Q 2531 2678 2651 2914 
Q 2772 3150 2772 3378 
Q 2772 3750 2511 3984 
Q 2250 4219 1831 4219 
Q 1534 4219 1204 4116 
Q 875 4013 500 3803 
L 500 4441 
Q 881 4594 1212 4672 
Q 1544 4750 1819 4750 
Q 2544 4750 2975 4387 
Q 3406 4025 3406 3419 
Q 3406 3131 3298 2873 
Q 3191 2616 2906 2266 
Q 2828 2175 2409 1742 
Q 1991 1309 1228 531 
z
" transform="scale(0.015625)"/>
       </defs>
       <use xlink:href="#DejaVuSans-32"/>
      </g>
     </g>
    </g>
    <g id="xtick_3">
     <g id="line2d_3">
      <g>
       <use xlink:href="#md20ccec0fe" x="162.160211" y="213.64" style="stroke: #000000; stroke-width: 0.8"/>
      </g>
     </g>
     <g id="text_3">
      <!-- 3 -->
      <g transform="translate(158.978961 228.238437) scale(0.1 -0.1)">
       <defs>
        <path id="DejaVuSans-33" d="M 2597 2516 
Q 3050 2419 3304 2112 
Q 3559 1806 3559 1356 
Q 3559 666 3084 287 
Q 2609 -91 1734 -91 
Q 1441 -91 1130 -33 
Q 819 25 488 141 
L 488 750 
Q 750 597 1062 519 
Q 1375 441 1716 441 
Q 2309 441 2620 675 
Q 2931 909 2931 1356 
Q 2931 1769 2642 2001 
Q 2353 2234 1838 2234 
L 1294 2234 
L 1294 2753 
L 1863 2753 
Q 2328 2753 2575 2939 
Q 2822 3125 2822 3475 
Q 2822 3834 2567 4026 
Q 2313 4219 1838 4219 
Q 1578 4219 1281 4162 
Q 984 4106 628 3988 
L 628 4550 
Q 988 4650 1302 4700 
Q 1616 4750 1894 4750 
Q 2613 4750 3031 4423 
Q 3450 4097 3450 3541 
Q 3450 3153 3228 2886 
Q 3006 2619 2597 2516 
z
" transform="scale(0.015625)"/>
       </defs>
       <use xlink:href="#DejaVuSans-33"/>
      </g>
     </g>
    </g>
    <g id="xtick_4">
     <g id="line2d_4">
      <g>
       <use xlink:href="#md20ccec0fe" x="212.534237" y="213.64" style="stroke: #000000; stroke-width: 0.8"/>
      </g>
     </g>
     <g id="text_4">
      <!-- 4 -->
      <g transform="translate(209.352987 228.238437) scale(0.1 -0.1)">
       <defs>
        <path id="DejaVuSans-34" d="M 2419 4116 
L 825 1625 
L 2419 1625 
L 2419 4116 
z
M 2253 4666 
L 3047 4666 
L 3047 1625 
L 3713 1625 
L 3713 1100 
L 3047 1100 
L 3047 0 
L 2419 0 
L 2419 1100 
L 313 1100 
L 313 1709 
L 2253 4666 
z
" transform="scale(0.015625)"/>
       </defs>
       <use xlink:href="#DejaVuSans-34"/>
      </g>
     </g>
    </g>
    <g id="xtick_5">
     <g id="line2d_5">
      <g>
       <use xlink:href="#md20ccec0fe" x="262.908263" y="213.64" style="stroke: #000000; stroke-width: 0.8"/>
      </g>
     </g>
     <g id="text_5">
      <!-- 5 -->
      <g transform="translate(259.727013 228.238437) scale(0.1 -0.1)">
       <defs>
        <path id="DejaVuSans-35" d="M 691 4666 
L 3169 4666 
L 3169 4134 
L 1269 4134 
L 1269 2991 
Q 1406 3038 1543 3061 
Q 1681 3084 1819 3084 
Q 2600 3084 3056 2656 
Q 3513 2228 3513 1497 
Q 3513 744 3044 326 
Q 2575 -91 1722 -91 
Q 1428 -91 1123 -41 
Q 819 9 494 109 
L 494 744 
Q 775 591 1075 516 
Q 1375 441 1709 441 
Q 2250 441 2565 725 
Q 2881 1009 2881 1497 
Q 2881 1984 2565 2268 
Q 2250 2553 1709 2553 
Q 1456 2553 1204 2497 
Q 953 2441 691 2322 
L 691 4666 
z
" transform="scale(0.015625)"/>
       </defs>
       <use xlink:href="#DejaVuSans-35"/>
      </g>
     </g>
    </g>
    <g id="xtick_6">
     <g id="line2d_6">
      <g>
       <use xlink:href="#md20ccec0fe" x="313.282289" y="213.64" style="stroke: #000000; stroke-width: 0.8"/>
      </g>
     </g>
     <g id="text_6">
      <!-- 6 -->
      <g transform="translate(310.101039 228.238437) scale(0.1 -0.1)">
       <defs>
        <path id="DejaVuSans-36" d="M 2113 2584 
Q 1688 2584 1439 2293 
Q 1191 2003 1191 1497 
Q 1191 994 1439 701 
Q 1688 409 2113 409 
Q 2538 409 2786 701 
Q 3034 994 3034 1497 
Q 3034 2003 2786 2293 
Q 2538 2584 2113 2584 
z
M 3366 4563 
L 3366 3988 
Q 3128 4100 2886 4159 
Q 2644 4219 2406 4219 
Q 1781 4219 1451 3797 
Q 1122 3375 1075 2522 
Q 1259 2794 1537 2939 
Q 1816 3084 2150 3084 
Q 2853 3084 3261 2657 
Q 3669 2231 3669 1497 
Q 3669 778 3244 343 
Q 2819 -91 2113 -91 
Q 1303 -91 875 529 
Q 447 1150 447 2328 
Q 447 3434 972 4092 
Q 1497 4750 2381 4750 
Q 2619 4750 2861 4703 
Q 3103 4656 3366 4563 
z
" transform="scale(0.015625)"/>
       </defs>
       <use xlink:href="#DejaVuSans-36"/>
      </g>
     </g>
    </g>
    <g id="xtick_7">
     <g id="line2d_7">
      <g>
       <use xlink:href="#md20ccec0fe" x="363.656315" y="213.64" style="stroke: #000000; stroke-width: 0.8"/>
      </g>
     </g>
     <g id="text_7">
      <!-- 7 -->
      <g transform="translate(360.475065 228.238437) scale(0.1 -0.1)">
       <defs>
        <path id="DejaVuSans-37" d="M 525 4666 
L 3525 4666 
L 3525 4397 
L 1831 0 
L 1172 0 
L 2766 4134 
L 525 4134 
L 525 4666 
z
" transform="scale(0.015625)"/>
       </defs>
       <use xlink:href="#DejaVuSans-37"/>
      </g>
     </g>
    </g>
    <g id="xtick_8">
     <g id="line2d_8">
      <g>
       <use xlink:href="#md20ccec0fe" x="414.030341" y="213.64" style="stroke: #000000; stroke-width: 0.8"/>
      </g>
     </g>
     <g id="text_8">
      <!-- 8 -->
      <g transform="translate(410.849091 228.238437) scale(0.1 -0.1)">
       <defs>
        <path id="DejaVuSans-38" d="M 2034 2216 
Q 1584 2216 1326 1975 
Q 1069 1734 1069 1313 
Q 1069 891 1326 650 
Q 1584 409 2034 409 
Q 2484 409 2743 651 
Q 3003 894 3003 1313 
Q 3003 1734 2745 1975 
Q 2488 2216 2034 2216 
z
M 1403 2484 
Q 997 2584 770 2862 
Q 544 3141 544 3541 
Q 544 4100 942 4425 
Q 1341 4750 2034 4750 
Q 2731 4750 3128 4425 
Q 3525 4100 3525 3541 
Q 3525 3141 3298 2862 
Q 3072 2584 2669 2484 
Q 3125 2378 3379 2068 
Q 3634 1759 3634 1313 
Q 3634 634 3220 271 
Q 2806 -91 2034 -91 
Q 1263 -91 848 271 
Q 434 634 434 1313 
Q 434 1759 690 2068 
Q 947 2378 1403 2484 
z
M 1172 3481 
Q 1172 3119 1398 2916 
Q 1625 2713 2034 2713 
Q 2441 2713 2670 2916 
Q 2900 3119 2900 3481 
Q 2900 3844 2670 4047 
Q 2441 4250 2034 4250 
Q 1625 4250 1398 4047 
Q 1172 3844 1172 3481 
z
" transform="scale(0.015625)"/>
       </defs>
       <use xlink:href="#DejaVuSans-38"/>
      </g>
     </g>
    </g>
    <g id="text_9">
     <!-- Block -->
     <g transform="translate(224.197812 241.916562) scale(0.1 -0.1)">
      <defs>
       <path id="DejaVuSans-42" d="M 1259 2228 
L 1259 519 
L 2272 519 
Q 2781 519 3026 730 
Q 3272 941 3272 1375 
Q 3272 1813 3026 2020 
Q 2781 2228 2272 2228 
L 1259 2228 
z
M 1259 4147 
L 1259 2741 
L 2194 2741 
Q 2656 2741 2882 2914 
Q 3109 3088 3109 3444 
Q 3109 3797 2882 3972 
Q 2656 4147 2194 4147 
L 1259 4147 
z
M 628 4666 
L 2241 4666 
Q 2963 4666 3353 4366 
Q 3744 4066 3744 3513 
Q 3744 3084 3544 2831 
Q 3344 2578 2956 2516 
Q 3422 2416 3680 2098 
Q 3938 1781 3938 1306 
Q 3938 681 3513 340 
Q 3088 0 2303 0 
L 628 0 
L 628 4666 
z
" transform="scale(0.015625)"/>
       <path id="DejaVuSans-6c" d="M 603 4863 
L 1178 4863 
L 1178 0 
L 603 0 
L 603 4863 
z
" transform="scale(0.015625)"/>
       <path id="DejaVuSans-6f" d="M 1959 3097 
Q 1497 3097 1228 2736 
Q 959 2375 959 1747 
Q 959 1119 1226 758 
Q 1494 397 1959 397 
Q 2419 397 2687 759 
Q 2956 1122 2956 1747 
Q 2956 2369 2687 2733 
Q 2419 3097 1959 3097 
z
M 1959 3584 
Q 2709 3584 3137 3096 
Q 3566 2609 3566 1747 
Q 3566 888 3137 398 
Q 2709 -91 1959 -91 
Q 1206 -91 779 398 
Q 353 888 353 1747 
Q 353 2609 779 3096 
Q 1206 3584 1959 3584 
z
" transform="scale(0.015625)"/>
       <path id="DejaVuSans-63" d="M 3122 3366 
L 3122 2828 
Q 2878 2963 2633 3030 
Q 2388 3097 2138 3097 
Q 1578 3097 1268 2742 
Q 959 2388 959 1747 
Q 959 1106 1268 751 
Q 1578 397 2138 397 
Q 2388 397 2633 464 
Q 2878 531 3122 666 
L 3122 134 
Q 2881 22 2623 -34 
Q 2366 -91 2075 -91 
Q 1284 -91 818 406 
Q 353 903 353 1747 
Q 353 2603 823 3093 
Q 1294 3584 2113 3584 
Q 2378 3584 2631 3529 
Q 2884 3475 3122 3366 
z
" transform="scale(0.015625)"/>
       <path id="DejaVuSans-6b" d="M 581 4863 
L 1159 4863 
L 1159 1991 
L 2875 3500 
L 3609 3500 
L 1753 1863 
L 3688 0 
L 2938 0 
L 1159 1709 
L 1159 0 
L 581 0 
L 581 4863 
z
" transform="scale(0.015625)"/>
      </defs>
      <use xlink:href="#DejaVuSans-42"/>
      <use xlink:href="#DejaVuSans-6c" transform="translate(68.603516 0)"/>
      <use xlink:href="#DejaVuSans-6f" transform="translate(96.386719 0)"/>
      <use xlink:href="#DejaVuSans-63" transform="translate(157.568359 0)"/>
      <use xlink:href="#DejaVuSans-6b" transform="translate(212.548828 0)"/>
     </g>
    </g>
   </g>
   <g id="matplotlib.axis_2">
    <g id="ytick_1">
     <g id="line2d_9">
      <path d="M 43.78125 209.781308 
L 431.66125 209.781308 
" clip-path="url(#pfd87661c9a)" style="fill: none; stroke: #ebebeb; stroke-width: 0.8; stroke-linecap: square"/>
     </g>
     <g id="line2d_10">
      <defs>
       <path id="me2961b5ca8" d="M 0 0 
L -3.5 0 
" style="stroke: #000000; stroke-width: 0.8"/>
      </defs>
      <g>
       <use xlink:href="#me2961b5ca8" x="43.78125" y="209.781308" style="stroke: #000000; stroke-width: 0.8"/>
      </g>
     </g>
     <g id="text_10">
      <!-- 0.0 -->
      <g transform="translate(20.878125 213.580527) scale(0.1 -0.1)">
       <defs>
        <path id="DejaVuSans-30" d="M 2034 4250 
Q 1547 4250 1301 3770 
Q 1056 3291 1056 2328 
Q 1056 1369 1301 889 
Q 1547 409 2034 409 
Q 2525 409 2770 889 
Q 3016 1369 3016 2328 
Q 3016 3291 2770 3770 
Q 2525 4250 2034 4250 
z
M 2034 4750 
Q 2819 4750 3233 4129 
Q 3647 3509 3647 2328 
Q 3647 1150 3233 529 
Q 2819 -91 2034 -91 
Q 1250 -91 836 529 
Q 422 1150 422 2328 
Q 422 3509 836 4129 
Q 1250 4750 2034 4750 
z
" transform="scale(0.015625)"/>
        <path id="DejaVuSans-2e" d="M 684 794 
L 1344 794 
L 1344 0 
L 684 0 
L 684 794 
z
" transform="scale(0.015625)"/>
       </defs>
       <use xlink:href="#DejaVuSans-30"/>
       <use xlink:href="#DejaVuSans-2e" transform="translate(63.623047 0)"/>
       <use xlink:href="#DejaVuSans-30" transform="translate(95.410156 0)"/>
      </g>
     </g>
    </g>
    <g id="ytick_2">
     <g id="line2d_11">
      <path d="M 43.78125 171.194393 
L 431.66125 171.194393 
" clip-path="url(#pfd87661c9a)" style="fill: none; stroke: #ebebeb; stroke-width: 0.8; stroke-linecap: square"/>
     </g>
     <g id="line2d_12">
      <g>
       <use xlink:href="#me2961b5ca8" x="43.78125" y="171.194393" style="stroke: #000000; stroke-width: 0.8"/>
      </g>
     </g>
     <g id="text_11">
      <!-- 0.2 -->
      <g transform="translate(20.878125 174.993611) scale(0.1 -0.1)">
       <use xlink:href="#DejaVuSans-30"/>
       <use xlink:href="#DejaVuSans-2e" transform="translate(63.623047 0)"/>
       <use xlink:href="#DejaVuSans-32" transform="translate(95.410156 0)"/>
      </g>
     </g>
    </g>
    <g id="ytick_3">
     <g id="line2d_13">
      <path d="M 43.78125 132.607477 
L 431.66125 132.607477 
" clip-path="url(#pfd87661c9a)" style="fill: none; stroke: #ebebeb; stroke-width: 0.8; stroke-linecap: square"/>
     </g>
     <g id="line2d_14">
      <g>
       <use xlink:href="#me2961b5ca8" x="43.78125" y="132.607477" style="stroke: #000000; stroke-width: 0.8"/>
      </g>
     </g>
     <g id="text_12">
      <!-- 0.4 -->
      <g transform="translate(20.878125 136.406695) scale(0.1 -0.1)">
       <use xlink:href="#DejaVuSans-30"/>
       <use xlink:href="#DejaVuSans-2e" transform="translate(63.623047 0)"/>
       <use xlink:href="#DejaVuSans-34" transform="translate(95.410156 0)"/>
      </g>
     </g>
    </g>
    <g id="ytick_4">
     <g id="line2d_15">
      <path d="M 43.78125 94.020561 
L 431.66125 94.020561 
" clip-path="url(#pfd87661c9a)" style="fill: none; stroke: #ebebeb; stroke-width: 0.8; stroke-linecap: square"/>
     </g>
     <g id="line2d_16">
      <g>
       <use xlink:href="#me2961b5ca8" x="43.78125" y="94.020561" style="stroke: #000000; stroke-width: 0.8"/>
      </g>
     </g>
     <g id="text_13">
      <!-- 0.6 -->
      <g transform="translate(20.878125 97.819779) scale(0.1 -0.1)">
       <use xlink:href="#DejaVuSans-30"/>
       <use xlink:href="#DejaVuSans-2e" transform="translate(63.623047 0)"/>
       <use xlink:href="#DejaVuSans-36" transform="translate(95.410156 0)"/>
      </g>
     </g>
    </g>
    <g id="ytick_5">
     <g id="line2d_17">
      <path d="M 43.78125 55.433645 
L 431.66125 55.433645 
" clip-path="url(#pfd87661c9a)" style="fill: none; stroke: #ebebeb; stroke-width: 0.8; stroke-linecap: square"/>
     </g>
     <g id="line2d_18">
      <g>
       <use xlink:href="#me2961b5ca8" x="43.78125" y="55.433645" style="stroke: #000000; stroke-width: 0.8"/>
      </g>
     </g>
     <g id="text_14">
      <!-- 0.8 -->
      <g transform="translate(20.878125 59.232864) scale(0.1 -0.1)">
       <use xlink:href="#DejaVuSans-30"/>
       <use xlink:href="#DejaVuSans-2e" transform="translate(63.623047 0)"/>
       <use xlink:href="#DejaVuSans-38" transform="translate(95.410156 0)"/>
      </g>
     </g>
    </g>
    <g id="ytick_6">
     <g id="line2d_19">
      <path d="M 43.78125 16.846729 
L 431.66125 16.846729 
" clip-path="url(#pfd87661c9a)" style="fill: none; stroke: #ebebeb; stroke-width: 0.8; stroke-linecap: square"/>
     </g>
     <g id="line2d_20">
      <g>
       <use xlink:href="#me2961b5ca8" x="43.78125" y="16.846729" style="stroke: #000000; stroke-width: 0.8"/>
      </g>
     </g>
     <g id="text_15">
      <!-- 1.0 -->
      <g transform="translate(20.878125 20.645948) scale(0.1 -0.1)">
       <use xlink:href="#DejaVuSans-31"/>
       <use xlink:href="#DejaVuSans-2e" transform="translate(63.623047 0)"/>
       <use xlink:href="#DejaVuSans-30" transform="translate(95.410156 0)"/>
      </g>
     </g>
    </g>
    <g id="text_16">
     <!-- Illusion rate -->
     <g transform="translate(14.798438 139.809062) rotate(-90) scale(0.1 -0.1)">
      <defs>
       <path id="DejaVuSans-49" d="M 628 4666 
L 1259 4666 
L 1259 0 
L 628 0 
L 628 4666 
z
" transform="scale(0.015625)"/>
       <path id="DejaVuSans-75" d="M 544 1381 
L 544 3500 
L 1119 3500 
L 1119 1403 
Q 1119 906 1312 657 
Q 1506 409 1894 409 
Q 2359 409 2629 706 
Q 2900 1003 2900 1516 
L 2900 3500 
L 3475 3500 
L 3475 0 
L 2900 0 
L 2900 538 
Q 2691 219 2414 64 
Q 2138 -91 1772 -91 
Q 1169 -91 856 284 
Q 544 659 544 1381 
z
M 1991 3584 
L 1991 3584 
z
" transform="scale(0.015625)"/>
       <path id="DejaVuSans-73" d="M 2834 3397 
L 2834 2853 
Q 2591 2978 2328 3040 
Q 2066 3103 1784 3103 
Q 1356 3103 1142 2972 
Q 928 2841 928 2578 
Q 928 2378 1081 2264 
Q 1234 2150 1697 2047 
L 1894 2003 
Q 2506 1872 2764 1633 
Q 3022 1394 3022 966 
Q 3022 478 2636 193 
Q 2250 -91 1575 -91 
Q 1294 -91 989 -36 
Q 684 19 347 128 
L 347 722 
Q 666 556 975 473 
Q 1284 391 1588 391 
Q 1994 391 2212 530 
Q 2431 669 2431 922 
Q 2431 1156 2273 1281 
Q 2116 1406 1581 1522 
L 1381 1569 
Q 847 1681 609 1914 
Q 372 2147 372 2553 
Q 372 3047 722 3315 
Q 1072 3584 1716 3584 
Q 2034 3584 2315 3537 
Q 2597 3491 2834 3397 
z
" transform="scale(0.015625)"/>
       <path id="DejaVuSans-69" d="M 603 3500 
L 1178 3500 
L 1178 0 
L 603 0 
L 603 3500 
z
M 603 4863 
L 1178 4863 
L 1178 4134 
L 603 4134 
L 603 4863 
z
" transform="scale(0.015625)"/>
       <path id="DejaVuSans-6e" d="M 3513 2113 
L 3513 0 
L 2938 0 
L 2938 2094 
Q 2938 2591 2744 2837 
Q 2550 3084 2163 3084 
Q 1697 3084 1428 2787 
Q 1159 2491 1159 1978 
L 1159 0 
L 581 0 
L 581 3500 
L 1159 3500 
L 1159 2956 
Q 1366 3272 1645 3428 
Q 1925 3584 2291 3584 
Q 2894 3584 3203 3211 
Q 3513 2838 3513 2113 
z
" transform="scale(0.015625)"/>
       <path id="DejaVuSans-20" transform="scale(0.015625)"/>
       <path id="DejaVuSans-72" d="M 2631 2963 
Q 2534 3019 2420 3045 
Q 2306 3072 2169 3072 
Q 1681 3072 1420 2755 
Q 1159 2438 1159 1844 
L 1159 0 
L 581 0 
L 581 3500 
L 1159 3500 
L 1159 2956 
Q 1341 3275 1631 3429 
Q 1922 3584 2338 3584 
Q 2397 3584 2469 3576 
Q 2541 3569 2628 3553 
L 2631 2963 
z
" transform="scale(0.015625)"/>
       <path id="DejaVuSans-61" d="M 2194 1759 
Q 1497 1759 1228 1600 
Q 959 1441 959 1056 
Q 959 750 1161 570 
Q 1363 391 1709 391 
Q 2188 391 2477 730 
Q 2766 1069 2766 1631 
L 2766 1759 
L 2194 1759 
z
M 3341 1997 
L 3341 0 
L 2766 0 
L 2766 531 
Q 2569 213 2275 61 
Q 1981 -91 1556 -91 
Q 1019 -91 701 211 
Q 384 513 384 1019 
Q 384 1609 779 1909 
Q 1175 2209 1959 2209 
L 2766 2209 
L 2766 2266 
Q 2766 2663 2505 2880 
Q 2244 3097 1772 3097 
Q 1472 3097 1187 3025 
Q 903 2953 641 2809 
L 641 3341 
Q 956 3463 1253 3523 
Q 1550 3584 1831 3584 
Q 2591 3584 2966 3190 
Q 3341 2797 3341 1997 
z
" transform="scale(0.015625)"/>
       <path id="DejaVuSans-74" d="M 1172 4494 
L 1172 3500 
L 2356 3500 
L 2356 3053 
L 1172 3053 
L 1172 1153 
Q 1172 725 1289 603 
Q 1406 481 1766 481 
L 2356 481 
L 2356 0 
L 1766 0 
Q 1100 0 847 248 
Q 594 497 594 1153 
L 594 3053 
L 172 3053 
L 172 3500 
L 594 3500 
L 594 4494 
L 1172 4494 
z
" transform="scale(0.015625)"/>
       <path id="DejaVuSans-65" d="M 3597 1894 
L 3597 1613 
L 953 1613 
Q 991 1019 1311 708 
Q 1631 397 2203 397 
Q 2534 397 2845 478 
Q 3156 559 3463 722 
L 3463 178 
Q 3153 47 2828 -22 
Q 2503 -91 2169 -91 
Q 1331 -91 842 396 
Q 353 884 353 1716 
Q 353 2575 817 3079 
Q 1281 3584 2069 3584 
Q 2775 3584 3186 3129 
Q 3597 2675 3597 1894 
z
M 3022 2063 
Q 3016 2534 2758 2815 
Q 2500 3097 2075 3097 
Q 1594 3097 1305 2825 
Q 1016 2553 972 2059 
L 3022 2063 
z
" transform="scale(0.015625)"/>
      </defs>
      <use xlink:href="#DejaVuSans-49"/>
      <use xlink:href="#DejaVuSans-6c" transform="translate(29.492188 0)"/>
      <use xlink:href="#DejaVuSans-6c" transform="translate(57.275391 0)"/>
      <use xlink:href="#DejaVuSans-75" transform="translate(85.058594 0)"/>
      <use xlink:href="#DejaVuSans-73" transform="translate(148.4375 0)"/>
      <use xlink:href="#DejaVuSans-69" transform="translate(200.537109 0)"/>
      <use xlink:href="#DejaVuSans-6f" transform="translate(228.320312 0)"/>
      <use xlink:href="#DejaVuSans-6e" transform="translate(289.501953 0)"/>
      <use xlink:href="#DejaVuSans-20" transform="translate(352.880859 0)"/>
      <use xlink:href="#DejaVuSans-72" transform="translate(384.667969 0)"/>
      <use xlink:href="#DejaVuSans-61" transform="translate(425.78125 0)"/>
      <use xlink:href="#DejaVuSans-74" transform="translate(487.060547 0)"/>
      <use xlink:href="#DejaVuSans-65" transform="translate(526.269531 0)"/>
     </g>
    </g>
   </g>
   <g id="LineCollection_1">
    <path d="M 61.412159 122.784876 
L 61.412159 72.878353 
" clip-path="url(#pfd87661c9a)" style="fill: none; stroke: #1f77b4; stroke-width: 1.5"/>
    <path d="M 111.786185 146.773904 
L 111.786185 96.527492 
" clip-path="url(#pfd87661c9a)" style="fill: none; stroke: #1f77b4; stroke-width: 1.5"/>
    <path d="M 162.160211 140.936302 
L 162.160211 97.601277 
" clip-path="url(#pfd87661c9a)" style="fill: none; stroke: #1f77b4; stroke-width: 1.5"/>
    <path d="M 212.534237 140.854372 
L 212.534237 92.91939 
" clip-path="url(#pfd87661c9a)" style="fill: none; stroke: #1f77b4; stroke-width: 1.5"/>
    <path d="M 262.908263 137.96405 
L 262.908263 91.045896 
" clip-path="url(#pfd87661c9a)" style="fill: none; stroke: #1f77b4; stroke-width: 1.5"/>
    <path d="M 313.282289 148.937286 
L 313.282289 108.65556 
" clip-path="url(#pfd87661c9a)" style="fill: none; stroke: #1f77b4; stroke-width: 1.5"/>
    <path d="M 363.656315 132.369286 
L 363.656315 91.876843 
" clip-path="url(#pfd87661c9a)" style="fill: none; stroke: #1f77b4; stroke-width: 1.5"/>
    <path d="M 414.030341 136.456256 
L 414.030341 97.317507 
" clip-path="url(#pfd87661c9a)" style="fill: none; stroke: #1f77b4; stroke-width: 1.5"/>
   </g>
   <g id="line2d_21">
    <defs>
     <path id="maad781f2d7" d="M 3 0 
L -3 -0 
" style="stroke: #1f77b4"/>
    </defs>
    <g clip-path="url(#pfd87661c9a)">
     <use xlink:href="#maad781f2d7" x="61.412159" y="122.784876" style="fill: #1f77b4; stroke: #1f77b4"/>
     <use xlink:href="#maad781f2d7" x="111.786185" y="146.773904" style="fill: #1f77b4; stroke: #1f77b4"/>
     <use xlink:href="#maad781f2d7" x="162.160211" y="140.936302" style="fill: #1f77b4; stroke: #1f77b4"/>
     <use xlink:href="#maad781f2d7" x="212.534237" y="140.854372" style="fill: #1f77b4; stroke: #1f77b4"/>
     <use xlink:href="#maad781f2d7" x="262.908263" y="137.96405" style="fill: #1f77b4; stroke: #1f77b4"/>
     <use xlink:href="#maad781f2d7" x="313.282289" y="148.937286" style="fill: #1f77b4; stroke: #1f77b4"/>
     <use xlink:href="#maad781f2d7" x="363.656315" y="132.369286" style="fill: #1f77b4; stroke: #1f77b4"/>
     <use xlink:href="#maad781f2d7" x="414.030341" y="136.456256" style="fill: #1f77b4; stroke: #1f77b4"/>
    </g>
   </g>
   <g id="line2d_22">
    <g clip-path="url(#pfd87661c9a)">
     <use xlink:href="#maad781f2d7" x="61.412159" y="72.878353" style="fill: #1f77b4; stroke: #1f77b4"/>
     <use xlink:href="#maad781f2d7" x="111.786185" y="96.527492" style="fill: #1f77b4; stroke: #1f77b4"/>
     <use xlink:href="#maad781f2d7" x="162.160211" y="97.601277" style="fill: #1f77b4; stroke: #1f77b4"/>
     <use xlink:href="#maad781f2d7" x="212.534237" y="92.91939" style="fill: #1f77b4; stroke: #1f77b4"/>
     <use xlink:href="#maad781f2d7" x="262.908263" y="91.045896" style="fill: #1f77b4; stroke: #1f77b4"/>
     <use xlink:href="#maad781f2d7" x="313.282289" y="108.65556" style="fill: #1f77b4; stroke: #1f77b4"/>
     <use xlink:href="#maad781f2d7" x="363.656315" y="91.876843" style="fill: #1f77b4; stroke: #1f77b4"/>
     <use xlink:href="#maad781f2d7" x="414.030341" y="97.317507" style="fill: #1f77b4; stroke: #1f77b4"/>
    </g>
   </g>
   <g id="LineCollection_2">
    <path d="M 61.412159 157.707631 
L 61.412159 114.176666 
" clip-path="url(#pfd87661c9a)" style="fill: none; stroke: #ff7f0e; stroke-width: 1.5"/>
    <path d="M 111.786185 155.145822 
L 111.786185 107.210841 
" clip-path="url(#pfd87661c9a)" style="fill: none; stroke: #ff7f0e; stroke-width: 1.5"/>
    <path d="M 162.160211 169.2392 
L 162.160211 112.172731 
" clip-path="url(#pfd87661c9a)" style="fill: none; stroke: #ff7f0e; stroke-width: 1.5"/>
    <path d="M 212.534237 165.142302 
L 212.534237 116.269628 
" clip-path="url(#pfd87661c9a)" style="fill: none; stroke: #ff7f0e; stroke-width: 1.5"/>
    <path d="M 262.908263 156.542153 
L 262.908263 120.105961 
" clip-path="url(#pfd87661c9a)" style="fill: none; stroke: #ff7f0e; stroke-width: 1.5"/>
    <path d="M 313.282289 167.886641 
L 313.282289 127.81674 
" clip-path="url(#pfd87661c9a)" style="fill: none; stroke: #ff7f0e; stroke-width: 1.5"/>
    <path d="M 363.656315 179.001686 
L 363.656315 140.520778 
" clip-path="url(#pfd87661c9a)" style="fill: none; stroke: #ff7f0e; stroke-width: 1.5"/>
    <path d="M 414.030341 160.056931 
L 414.030341 116.591182 
" clip-path="url(#pfd87661c9a)" style="fill: none; stroke: #ff7f0e; stroke-width: 1.5"/>
   </g>
   <g id="line2d_23">
    <defs>
     <path id="mb3948c37a0" d="M 3 0 
L -3 -0 
" style="stroke: #ff7f0e"/>
    </defs>
    <g clip-path="url(#pfd87661c9a)">
     <use xlink:href="#mb3948c37a0" x="61.412159" y="157.707631" style="fill: #ff7f0e; stroke: #ff7f0e"/>
     <use xlink:href="#mb3948c37a0" x="111.786185" y="155.145822" style="fill: #ff7f0e; stroke: #ff7f0e"/>
     <use xlink:href="#mb3948c37a0" x="162.160211" y="169.2392" style="fill: #ff7f0e; stroke: #ff7f0e"/>
     <use xlink:href="#mb3948c37a0" x="212.534237" y="165.142302" style="fill: #ff7f0e; stroke: #ff7f0e"/>
     <use xlink:href="#mb3948c37a0" x="262.908263" y="156.542153" style="fill: #ff7f0e; stroke: #ff7f0e"/>
     <use xlink:href="#mb3948c37a0" x="313.282289" y="167.886641" style="fill: #ff7f0e; stroke: #ff7f0e"/>
     <use xlink:href="#mb3948c37a0" x="363.656315" y="179.001686" style="fill: #ff7f0e; stroke: #ff7f0e"/>
     <use xlink:href="#mb3948c37a0" x="414.030341" y="160.056931" style="fill: #ff7f0e; stroke: #ff7f0e"/>
    </g>
   </g>
   <g id="line2d_24">
    <g clip-path="url(#pfd87661c9a)">
     <use xlink:href="#mb3948c37a0" x="61.412159" y="114.176666" style="fill: #ff7f0e; stroke: #ff7f0e"/>
     <use xlink:href="#mb3948c37a0" x="111.786185" y="107.210841" style="fill: #ff7f0e; stroke: #ff7f0e"/>
     <use xlink:href="#mb3948c37a0" x="162.160211" y="112.172731" style="fill: #ff7f0e; stroke: #ff7f0e"/>
     <use xlink:href="#mb3948c37a0" x="212.534237" y="116.269628" style="fill: #ff7f0e; stroke: #ff7f0e"/>
     <use xlink:href="#mb3948c37a0" x="262.908263" y="120.105961" style="fill: #ff7f0e; stroke: #ff7f0e"/>
     <use xlink:href="#mb3948c37a0" x="313.282289" y="127.81674" style="fill: #ff7f0e; stroke: #ff7f0e"/>
     <use xlink:href="#mb3948c37a0" x="363.656315" y="140.520778" style="fill: #ff7f0e; stroke: #ff7f0e"/>
     <use xlink:href="#mb3948c37a0" x="414.030341" y="116.591182" style="fill: #ff7f0e; stroke: #ff7f0e"/>
    </g>
   </g>
   <g id="LineCollection_3">
    <path d="M 61.412159 124.364669 
L 61.412159 85.59001 
" clip-path="url(#pfd87661c9a)" style="fill: none; stroke: #2ca02c; stroke-width: 1.5"/>
    <path d="M 111.786185 133.448259 
L 111.786185 95.561687 
" clip-path="url(#pfd87661c9a)" style="fill: none; stroke: #2ca02c; stroke-width: 1.5"/>
    <path d="M 162.160211 139.483648 
L 162.160211 94.290114 
" clip-path="url(#pfd87661c9a)" style="fill: none; stroke: #2ca02c; stroke-width: 1.5"/>
    <path d="M 212.534237 122.527766 
L 212.534237 73.135462 
" clip-path="url(#pfd87661c9a)" style="fill: none; stroke: #2ca02c; stroke-width: 1.5"/>
    <path d="M 262.908263 138.024221 
L 262.908263 95.749541 
" clip-path="url(#pfd87661c9a)" style="fill: none; stroke: #2ca02c; stroke-width: 1.5"/>
    <path d="M 313.282289 134.433448 
L 313.282289 94.576498 
" clip-path="url(#pfd87661c9a)" style="fill: none; stroke: #2ca02c; stroke-width: 1.5"/>
    <path d="M 363.656315 121.835885 
L 363.656315 83.354977 
" clip-path="url(#pfd87661c9a)" style="fill: none; stroke: #2ca02c; stroke-width: 1.5"/>
    <path d="M 414.030341 127.130368 
L 414.030341 82.824311 
" clip-path="url(#pfd87661c9a)" style="fill: none; stroke: #2ca02c; stroke-width: 1.5"/>
   </g>
   <g id="line2d_25">
    <defs>
     <path id="m213788fb6e" d="M 3 0 
L -3 -0 
" style="stroke: #2ca02c"/>
    </defs>
    <g clip-path="url(#pfd87661c9a)">
     <use xlink:href="#m213788fb6e" x="61.412159" y="124.364669" style="fill: #2ca02c; stroke: #2ca02c"/>
     <use xlink:href="#m213788fb6e" x="111.786185" y="133.448259" style="fill: #2ca02c; stroke: #2ca02c"/>
     <use xlink:href="#m213788fb6e" x="162.160211" y="139.483648" style="fill: #2ca02c; stroke: #2ca02c"/>
     <use xlink:href="#m213788fb6e" x="212.534237" y="122.527766" style="fill: #2ca02c; stroke: #2ca02c"/>
     <use xlink:href="#m213788fb6e" x="262.908263" y="138.024221" style="fill: #2ca02c; stroke: #2ca02c"/>
     <use xlink:href="#m213788fb6e" x="313.282289" y="134.433448" style="fill: #2ca02c; stroke: #2ca02c"/>
     <use xlink:href="#m213788fb6e" x="363.656315" y="121.835885" style="fill: #2ca02c; stroke: #2ca02c"/>
     <use xlink:href="#m213788fb6e" x="414.030341" y="127.130368" style="fill: #2ca02c; stroke: #2ca02c"/>
    </g>
   </g>
   <g id="line2d_26">
    <g clip-path="url(#pfd87661c9a)">
     <use xlink:href="#m213788fb6e" x="61.412159" y="85.59001" style="fill: #2ca02c; stroke: #2ca02c"/>
     <use xlink:href="#m213788fb6e" x="111.786185" y="95.561687" style="fill: #2ca02c; stroke: #2ca02c"/>
     <use xlink:href="#m213788fb6e" x="162.160211" y="94.290114" style="fill: #2ca02c; stroke: #2ca02c"/>
     <use xlink:href="#m213788fb6e" x="212.534237" y="73.135462" style="fill: #2ca02c; stroke: #2ca02c"/>
     <use xlink:href="#m213788fb6e" x="262.908263" y="95.749541" style="fill: #2ca02c; stroke: #2ca02c"/>
     <use xlink:href="#m213788fb6e" x="313.282289" y="94.576498" style="fill: #2ca02c; stroke: #2ca02c"/>
     <use xlink:href="#m213788fb6e" x="363.656315" y="83.354977" style="fill: #2ca02c; stroke: #2ca02c"/>
     <use xlink:href="#m213788fb6e" x="414.030341" y="82.824311" style="fill: #2ca02c; stroke: #2ca02c"/>
    </g>
   </g>
   <g id="LineCollection_4">
    <path d="M 61.412159 179.19501 
L 61.412159 145.091272 
" clip-path="url(#pfd87661c9a)" style="fill: none; stroke: #d62728; stroke-width: 1.5"/>
    <path d="M 111.786185 195.929698 
L 111.786185 166.467118 
" clip-path="url(#pfd87661c9a)" style="fill: none; stroke: #d62728; stroke-width: 1.5"/>
    <path d="M 162.160211 190.177478 
L 162.160211 167.45552 
" clip-path="url(#pfd87661c9a)" style="fill: none; stroke: #d62728; stroke-width: 1.5"/>
    <path d="M 212.534237 192.43577 
L 212.534237 150.905778 
" clip-path="url(#pfd87661c9a)" style="fill: none; stroke: #d62728; stroke-width: 1.5"/>
    <path d="M 262.908263 193.610777 
L 262.908263 159.258405 
" clip-path="url(#pfd87661c9a)" style="fill: none; stroke: #d62728; stroke-width: 1.5"/>
    <path d="M 313.282289 198.215006 
L 313.282289 168.945626 
" clip-path="url(#pfd87661c9a)" style="fill: none; stroke: #d62728; stroke-width: 1.5"/>
    <path d="M 363.656315 202.117113 
L 363.656315 169.807336 
" clip-path="url(#pfd87661c9a)" style="fill: none; stroke: #d62728; stroke-width: 1.5"/>
    <path d="M 414.030341 203.077077 
L 414.030341 164.083556 
" clip-path="url(#pfd87661c9a)" style="fill: none; stroke: #d62728; stroke-width: 1.5"/>
   </g>
   <g id="line2d_27">
    <defs>
     <path id="mff078cc294" d="M 3 0 
L -3 -0 
" style="stroke: #d62728"/>
    </defs>
    <g clip-path="url(#pfd87661c9a)">
     <use xlink:href="#mff078cc294" x="61.412159" y="179.19501" style="fill: #d62728; stroke: #d62728"/>
     <use xlink:href="#mff078cc294" x="111.786185" y="195.929698" style="fill: #d62728; stroke: #d62728"/>
     <use xlink:href="#mff078cc294" x="162.160211" y="190.177478" style="fill: #d62728; stroke: #d62728"/>
     <use xlink:href="#mff078cc294" x="212.534237" y="192.43577" style="fill: #d62728; stroke: #d62728"/>
     <use xlink:href="#mff078cc294" x="262.908263" y="193.610777" style="fill: #d62728; stroke: #d62728"/>
     <use xlink:href="#mff078cc294" x="313.282289" y="198.215006" style="fill: #d62728; stroke: #d62728"/>
     <use xlink:href="#mff078cc294" x="363.656315" y="202.117113" style="fill: #d62728; stroke: #d62728"/>
     <use xlink:href="#mff078cc294" x="414.030341" y="203.077077" style="fill: #d62728; stroke: #d62728"/>
    </g>
   </g>
   <g id="line2d_28">
    <g clip-path="url(#pfd87661c9a)">
     <use xlink:href="#mff078cc294" x="61.412159" y="145.091272" style="fill: #d62728; stroke: #d62728"/>
     <use xlink:href="#mff078cc294" x="111.786185" y="166.467118" style="fill: #d62728; stroke: #d62728"/>
     <use xlink:href="#mff078cc294" x="162.160211" y="167.45552" style="fill: #d62728; stroke: #d62728"/>
     <use xlink:href="#mff078cc294" x="212.534237" y="150.905778" style="fill: #d62728; stroke: #d62728"/>
     <use xlink:href="#mff078cc294" x="262.908263" y="159.258405" style="fill: #d62728; stroke: #d62728"/>
     <use xlink:href="#mff078cc294" x="313.282289" y="168.945626" style="fill: #d62728; stroke: #d62728"/>
     <use xlink:href="#mff078cc294" x="363.656315" y="169.807336" style="fill: #d62728; stroke: #d62728"/>
     <use xlink:href="#mff078cc294" x="414.030341" y="164.083556" style="fill: #d62728; stroke: #d62728"/>
    </g>
   </g>
   <g id="line2d_29">
    <path d="M 61.412159 97.831614 
L 111.786185 121.650698 
L 162.160211 119.26879 
L 212.534237 116.886881 
L 262.908263 114.504973 
L 313.282289 128.796423 
L 363.656315 112.123064 
L 414.030341 116.886881 
" clip-path="url(#pfd87661c9a)" style="fill: none; stroke: #1f77b4; stroke-width: 1.5; stroke-linecap: square"/>
    <defs>
     <path id="m7231b1d704" d="M 0 3 
C 0.795609 3 1.55874 2.683901 2.12132 2.12132 
C 2.683901 1.55874 3 0.795609 3 0 
C 3 -0.795609 2.683901 -1.55874 2.12132 -2.12132 
C 1.55874 -2.683901 0.795609 -3 0 -3 
C -0.795609 -3 -1.55874 -2.683901 -2.12132 -2.12132 
C -2.683901 -1.55874 -3 -0.795609 -3 0 
C -3 0.795609 -2.683901 1.55874 -2.12132 2.12132 
C -1.55874 2.683901 -0.795609 3 0 3 
z
" style="stroke: #1f77b4"/>
    </defs>
    <g clip-path="url(#pfd87661c9a)">
     <use xlink:href="#m7231b1d704" x="61.412159" y="97.831614" style="fill: #1f77b4; stroke: #1f77b4"/>
     <use xlink:href="#m7231b1d704" x="111.786185" y="121.650698" style="fill: #1f77b4; stroke: #1f77b4"/>
     <use xlink:href="#m7231b1d704" x="162.160211" y="119.26879" style="fill: #1f77b4; stroke: #1f77b4"/>
     <use xlink:href="#m7231b1d704" x="212.534237" y="116.886881" style="fill: #1f77b4; stroke: #1f77b4"/>
     <use xlink:href="#m7231b1d704" x="262.908263" y="114.504973" style="fill: #1f77b4; stroke: #1f77b4"/>
     <use xlink:href="#m7231b1d704" x="313.282289" y="128.796423" style="fill: #1f77b4; stroke: #1f77b4"/>
     <use xlink:href="#m7231b1d704" x="363.656315" y="112.123064" style="fill: #1f77b4; stroke: #1f77b4"/>
     <use xlink:href="#m7231b1d704" x="414.030341" y="116.886881" style="fill: #1f77b4; stroke: #1f77b4"/>
    </g>
   </g>
   <g id="line2d_30">
    <path d="M 61.412159 135.942148 
L 111.786185 131.178332 
L 162.160211 140.705965 
L 212.534237 140.705965 
L 262.908263 138.324057 
L 313.282289 147.85169 
L 363.656315 159.761232 
L 414.030341 138.324057 
" clip-path="url(#pfd87661c9a)" style="fill: none; stroke: #ff7f0e; stroke-width: 1.5; stroke-linecap: square"/>
    <defs>
     <path id="mbb25206e54" d="M 0 3 
C 0.795609 3 1.55874 2.683901 2.12132 2.12132 
C 2.683901 1.55874 3 0.795609 3 0 
C 3 -0.795609 2.683901 -1.55874 2.12132 -2.12132 
C 1.55874 -2.683901 0.795609 -3 0 -3 
C -0.795609 -3 -1.55874 -2.683901 -2.12132 -2.12132 
C -2.683901 -1.55874 -3 -0.795609 -3 0 
C -3 0.795609 -2.683901 1.55874 -2.12132 2.12132 
C -1.55874 2.683901 -0.795609 3 0 3 
z
" style="stroke: #ff7f0e"/>
    </defs>
    <g clip-path="url(#pfd87661c9a)">
     <use xlink:href="#mbb25206e54" x="61.412159" y="135.942148" style="fill: #ff7f0e; stroke: #ff7f0e"/>
     <use xlink:href="#mbb25206e54" x="111.786185" y="131.178332" style="fill: #ff7f0e; stroke: #ff7f0e"/>
     <use xlink:href="#mbb25206e54" x="162.160211" y="140.705965" style="fill: #ff7f0e; stroke: #ff7f0e"/>
     <use xlink:href="#mbb25206e54" x="212.534237" y="140.705965" style="fill: #ff7f0e; stroke: #ff7f0e"/>
     <use xlink:href="#mbb25206e54" x="262.908263" y="138.324057" style="fill: #ff7f0e; stroke: #ff7f0e"/>
     <use xlink:href="#mbb25206e54" x="313.282289" y="147.85169" style="fill: #ff7f0e; stroke: #ff7f0e"/>
     <use xlink:href="#mbb25206e54" x="363.656315" y="159.761232" style="fill: #ff7f0e; stroke: #ff7f0e"/>
     <use xlink:href="#mbb25206e54" x="414.030341" y="138.324057" style="fill: #ff7f0e; stroke: #ff7f0e"/>
    </g>
   </g>
   <g id="line2d_31">
    <path d="M 61.412159 104.977339 
L 111.786185 114.504973 
L 162.160211 116.886881 
L 212.534237 97.831614 
L 262.908263 116.886881 
L 313.282289 114.504973 
L 363.656315 102.595431 
L 414.030341 104.977339 
" clip-path="url(#pfd87661c9a)" style="fill: none; stroke: #2ca02c; stroke-width: 1.5; stroke-linecap: square"/>
    <defs>
     <path id="m666ca4be2c" d="M 0 3 
C 0.795609 3 1.55874 2.683901 2.12132 2.12132 
C 2.683901 1.55874 3 0.795609 3 0 
C 3 -0.795609 2.683901 -1.55874 2.12132 -2.12132 
C 1.55874 -2.683901 0.795609 -3 0 -3 
C -0.795609 -3 -1.55874 -2.683901 -2.12132 -2.12132 
C -2.683901 -1.55874 -3 -0.795609 -3 0 
C -3 0.795609 -2.683901 1.55874 -2.12132 2.12132 
C -1.55874 2.683901 -0.795609 3 0 3 
z
" style="stroke: #2ca02c"/>
    </defs>
    <g clip-path="url(#pfd87661c9a)">
     <use xlink:href="#m666ca4be2c" x="61.412159" y="104.977339" style="fill: #2ca02c; stroke: #2ca02c"/>
     <use xlink:href="#m666ca4be2c" x="111.786185" y="114.504973" style="fill: #2ca02c; stroke: #2ca02c"/>
     <use xlink:href="#m666ca4be2c" x="162.160211" y="116.886881" style="fill: #2ca02c; stroke: #2ca02c"/>
     <use xlink:href="#m666ca4be2c" x="212.534237" y="97.831614" style="fill: #2ca02c; stroke: #2ca02c"/>
     <use xlink:href="#m666ca4be2c" x="262.908263" y="116.886881" style="fill: #2ca02c; stroke: #2ca02c"/>
     <use xlink:href="#m666ca4be2c" x="313.282289" y="114.504973" style="fill: #2ca02c; stroke: #2ca02c"/>
     <use xlink:href="#m666ca4be2c" x="363.656315" y="102.595431" style="fill: #2ca02c; stroke: #2ca02c"/>
     <use xlink:href="#m666ca4be2c" x="414.030341" y="104.977339" style="fill: #2ca02c; stroke: #2ca02c"/>
    </g>
   </g>
   <g id="line2d_32">
    <path d="M 61.412159 162.143141 
L 111.786185 181.198408 
L 162.160211 178.816499 
L 212.534237 171.670774 
L 262.908263 176.434591 
L 313.282289 183.580316 
L 363.656315 185.962225 
L 414.030341 183.580316 
" clip-path="url(#pfd87661c9a)" style="fill: none; stroke: #d62728; stroke-width: 1.5; stroke-linecap: square"/>
    <defs>
     <path id="mfb684a97f6" d="M 0 3 
C 0.795609 3 1.55874 2.683901 2.12132 2.12132 
C 2.683901 1.55874 3 0.795609 3 0 
C 3 -0.795609 2.683901 -1.55874 2.12132 -2.12132 
C 1.55874 -2.683901 0.795609 -3 0 -3 
C -0.795609 -3 -1.55874 -2.683901 -2.12132 -2.12132 
C -2.683901 -1.55874 -3 -0.795609 -3 0 
C -3 0.795609 -2.683901 1.55874 -2.12132 2.12132 
C -1.55874 2.683901 -0.795609 3 0 3 
z
" style="stroke: #d62728"/>
    </defs>
    <g clip-path="url(#pfd87661c9a)">
     <use xlink:href="#mfb684a97f6" x="61.412159" y="162.143141" style="fill: #d62728; stroke: #d62728"/>
     <use xlink:href="#mfb684a97f6" x="111.786185" y="181.198408" style="fill: #d62728; stroke: #d62728"/>
     <use xlink:href="#mfb684a97f6" x="162.160211" y="178.816499" style="fill: #d62728; stroke: #d62728"/>
     <use xlink:href="#mfb684a97f6" x="212.534237" y="171.670774" style="fill: #d62728; stroke: #d62728"/>
     <use xlink:href="#mfb684a97f6" x="262.908263" y="176.434591" style="fill: #d62728; stroke: #d62728"/>
     <use xlink:href="#mfb684a97f6" x="313.282289" y="183.580316" style="fill: #d62728; stroke: #d62728"/>
     <use xlink:href="#mfb684a97f6" x="363.656315" y="185.962225" style="fill: #d62728; stroke: #d62728"/>
     <use xlink:href="#mfb684a97f6" x="414.030341" y="183.580316" style="fill: #d62728; stroke: #d62728"/>
    </g>
   </g>
   <g id="patch_3">
    <path d="M 43.78125 213.64 
L 43.78125 7.2 
" style="fill: none; stroke: #000000; stroke-width: 0.8; stroke-linejoin: miter; stroke-linecap: square"/>
   </g>
   <g id="patch_4">
    <path d="M 43.78125 213.64 
L 431.66125 213.64 
" style="fill: none; stroke: #000000; stroke-width: 0.8; stroke-linejoin: miter; stroke-linecap: square"/>
   </g>
   <g id="legend_1">
    <g id="LineCollection_5">
     <path d="M 199.339375 25.298438 
L 199.339375 15.298438 
" style="fill: none; stroke: #1f77b4; stroke-width: 1.5"/>
    </g>
    <g id="line2d_33">
     <g>
      <use xlink:href="#maad781f2d7" x="199.339375" y="25.298438" style="fill: #1f77b4; stroke: #1f77b4"/>
     </g>
    </g>
    <g id="line2d_34">
     <g>
      <use xlink:href="#maad781f2d7" x="199.339375" y="15.298438" style="fill: #1f77b4; stroke: #1f77b4"/>
     </g>
    </g>
    <g id="line2d_35">
     <path d="M 189.339375 20.298438 
L 209.339375 20.298438 
" style="fill: none; stroke: #1f77b4; stroke-width: 1.5; stroke-linecap: square"/>
    </g>
    <g id="line2d_36">
     <g>
      <use xlink:href="#m7231b1d704" x="199.339375" y="20.298438" style="fill: #1f77b4; stroke: #1f77b4"/>
     </g>
    </g>
    <g id="text_17">
     <!-- fission short -->
     <g transform="translate(217.339375 23.798438) scale(0.1 -0.1)">
      <defs>
       <path id="DejaVuSans-66" d="M 2375 4863 
L 2375 4384 
L 1825 4384 
Q 1516 4384 1395 4259 
Q 1275 4134 1275 3809 
L 1275 3500 
L 2222 3500 
L 2222 3053 
L 1275 3053 
L 1275 0 
L 697 0 
L 697 3053 
L 147 3053 
L 147 3500 
L 697 3500 
L 697 3744 
Q 697 4328 969 4595 
Q 1241 4863 1831 4863 
L 2375 4863 
z
" transform="scale(0.015625)"/>
       <path id="DejaVuSans-68" d="M 3513 2113 
L 3513 0 
L 2938 0 
L 2938 2094 
Q 2938 2591 2744 2837 
Q 2550 3084 2163 3084 
Q 1697 3084 1428 2787 
Q 1159 2491 1159 1978 
L 1159 0 
L 581 0 
L 581 4863 
L 1159 4863 
L 1159 2956 
Q 1366 3272 1645 3428 
Q 1925 3584 2291 3584 
Q 2894 3584 3203 3211 
Q 3513 2838 3513 2113 
z
" transform="scale(0.015625)"/>
      </defs>
      <use xlink:href="#DejaVuSans-66"/>
      <use xlink:href="#DejaVuSans-69" transform="translate(35.205078 0)"/>
      <use xlink:href="#DejaVuSans-73" transform="translate(62.988281 0)"/>
      <use xlink:href="#DejaVuSans-73" transform="translate(115.087891 0)"/>
      <use xlink:href="#DejaVuSans-69" transform="translate(167.1875 0)"/>
      <use xlink:href="#DejaVuSans-6f" transform="translate(194.970703 0)"/>
      <use xlink:href="#DejaVuSans-6e" transform="translate(256.152344 0)"/>
      <use xlink:href="#DejaVuSans-20" transform="translate(319.53125 0)"/>
      <use xlink:href="#DejaVuSans-73" transform="translate(351.318359 0)"/>
      <use xlink:href="#DejaVuSans-68" transform="translate(403.417969 0)"/>
      <use xlink:href="#DejaVuSans-6f" transform="translate(466.796875 0)"/>
      <use xlink:href="#DejaVuSans-72" transform="translate(527.978516 0)"/>
      <use xlink:href="#DejaVuSans-74" transform="translate(569.091797 0)"/>
     </g>
    </g>
    <g id="LineCollection_6">
     <path d="M 199.339375 39.976562 
L 199.339375 29.976562 
" style="fill: none; stroke: #ff7f0e; stroke-width: 1.5"/>
    </g>
    <g id="line2d_37">
     <g>
      <use xlink:href="#mb3948c37a0" x="199.339375" y="39.976562" style="fill: #ff7f0e; stroke: #ff7f0e"/>
     </g>
    </g>
    <g id="line2d_38">
     <g>
      <use xlink:href="#mb3948c37a0" x="199.339375" y="29.976562" style="fill: #ff7f0e; stroke: #ff7f0e"/>
     </g>
    </g>
    <g id="line2d_39">
     <path d="M 189.339375 34.976562 
L 209.339375 34.976562 
" style="fill: none; stroke: #ff7f0e; stroke-width: 1.5; stroke-linecap: square"/>
    </g>
    <g id="line2d_40">
     <g>
      <use xlink:href="#mbb25206e54" x="199.339375" y="34.976562" style="fill: #ff7f0e; stroke: #ff7f0e"/>
     </g>
    </g>
    <g id="text_18">
     <!-- fission standard -->
     <g transform="translate(217.339375 38.476562) scale(0.1 -0.1)">
      <defs>
       <path id="DejaVuSans-64" d="M 2906 2969 
L 2906 4863 
L 3481 4863 
L 3481 0 
L 2906 0 
L 2906 525 
Q 2725 213 2448 61 
Q 2172 -91 1784 -91 
Q 1150 -91 751 415 
Q 353 922 353 1747 
Q 353 2572 751 3078 
Q 1150 3584 1784 3584 
Q 2172 3584 2448 3432 
Q 2725 3281 2906 2969 
z
M 947 1747 
Q 947 1113 1208 752 
Q 1469 391 1925 391 
Q 2381 391 2643 752 
Q 2906 1113 2906 1747 
Q 2906 2381 2643 2742 
Q 2381 3103 1925 3103 
Q 1469 3103 1208 2742 
Q 947 2381 947 1747 
z
" transform="scale(0.015625)"/>
      </defs>
      <use xlink:href="#DejaVuSans-66"/>
      <use xlink:href="#DejaVuSans-69" transform="translate(35.205078 0)"/>
      <use xlink:href="#DejaVuSans-73" transform="translate(62.988281 0)"/>
      <use xlink:href="#DejaVuSans-73" transform="translate(115.087891 0)"/>
      <use xlink:href="#DejaVuSans-69" transform="translate(167.1875 0)"/>
      <use xlink:href="#DejaVuSans-6f" transform="translate(194.970703 0)"/>
      <use xlink:href="#DejaVuSans-6e" transform="translate(256.152344 0)"/>
      <use xlink:href="#DejaVuSans-20" transform="translate(319.53125 0)"/>
      <use xlink:href="#DejaVuSans-73" transform="translate(351.318359 0)"/>
      <use xlink:href="#DejaVuSans-74" transform="translate(403.417969 0)"/>
      <use xlink:href="#DejaVuSans-61" transform="translate(442.626953 0)"/>
      <use xlink:href="#DejaVuSans-6e" transform="translate(503.90625 0)"/>
      <use xlink:href="#DejaVuSans-64" transform="translate(567.285156 0)"/>
      <use xlink:href="#DejaVuSans-61" transform="translate(630.761719 0)"/>
      <use xlink:href="#DejaVuSans-72" transform="translate(692.041016 0)"/>
      <use xlink:href="#DejaVuSans-64" transform="translate(731.404297 0)"/>
     </g>
    </g>
    <g id="LineCollection_7">
     <path d="M 326.825312 25.298438 
L 326.825312 15.298438 
" style="fill: none; stroke: #2ca02c; stroke-width: 1.5"/>
    </g>
    <g id="line2d_41">
     <g>
      <use xlink:href="#m213788fb6e" x="326.825312" y="25.298438" style="fill: #2ca02c; stroke: #2ca02c"/>
     </g>
    </g>
    <g id="line2d_42">
     <g>
      <use xlink:href="#m213788fb6e" x="326.825312" y="15.298438" style="fill: #2ca02c; stroke: #2ca02c"/>
     </g>
    </g>
    <g id="line2d_43">
     <path d="M 316.825312 20.298438 
L 336.825312 20.298438 
" style="fill: none; stroke: #2ca02c; stroke-width: 1.5; stroke-linecap: square"/>
    </g>
    <g id="line2d_44">
     <g>
      <use xlink:href="#m666ca4be2c" x="326.825312" y="20.298438" style="fill: #2ca02c; stroke: #2ca02c"/>
     </g>
    </g>
    <g id="text_19">
     <!-- fusion short -->
     <g transform="translate(344.825312 23.798438) scale(0.1 -0.1)">
      <use xlink:href="#DejaVuSans-66"/>
      <use xlink:href="#DejaVuSans-75" transform="translate(35.205078 0)"/>
      <use xlink:href="#DejaVuSans-73" transform="translate(98.583984 0)"/>
      <use xlink:href="#DejaVuSans-69" transform="translate(150.683594 0)"/>
      <use xlink:href="#DejaVuSans-6f" transform="translate(178.466797 0)"/>
      <use xlink:href="#DejaVuSans-6e" transform="translate(239.648438 0)"/>
      <use xlink:href="#DejaVuSans-20" transform="translate(303.027344 0)"/>
      <use xlink:href="#DejaVuSans-73" transform="translate(334.814453 0)"/>
      <use xlink:href="#DejaVuSans-68" transform="translate(386.914062 0)"/>
      <use xlink:href="#DejaVuSans-6f" transform="translate(450.292969 0)"/>
      <use xlink:href="#DejaVuSans-72" transform="translate(511.474609 0)"/>
      <use xlink:href="#DejaVuSans-74" transform="translate(552.587891 0)"/>
     </g>
    </g>
    <g id="LineCollection_8">
     <path d="M 326.825312 39.976562 
L 326.825312 29.976562 
" style="fill: none; stroke: #d62728; stroke-width: 1.5"/>
    </g>
    <g id="line2d_45">
     <g>
      <use xlink:href="#mff078cc294" x="326.825312" y="39.976562" style="fill: #d62728; stroke: #d62728"/>
     </g>
    </g>
    <g id="line2d_46">
     <g>
      <use xlink:href="#mff078cc294" x="326.825312" y="29.976562" style="fill: #d62728; stroke: #d62728"/>
     </g>
    </g>
    <g id="line2d_47">
     <path d="M 316.825312 34.976562 
L 336.825312 34.976562 
" style="fill: none; stroke: #d62728; stroke-width: 1.5; stroke-linecap: square"/>
    </g>
    <g id="line2d_48">
     <g>
      <use xlink:href="#mfb684a97f6" x="326.825312" y="34.976562" style="fill: #d62728; stroke: #d62728"/>
     </g>
    </g>
    <g id="text_20">
     <!-- fusion standard -->
     <g transform="translate(344.825312 38.476562) scale(0.1 -0.1)">
      <use xlink:href="#DejaVuSans-66"/>
      <use xlink:href="#DejaVuSans-75" transform="translate(35.205078 0)"/>
      <use xlink:href="#DejaVuSans-73" transform="translate(98.583984 0)"/>
      <use xlink:href="#DejaVuSans-69" transform="translate(150.683594 0)"/>
      <use xlink:href="#DejaVuSans-6f" transform="translate(178.466797 0)"/>
      <use xlink:href="#DejaVuSans-6e" transform="translate(239.648438 0)"/>
      <use xlink:href="#DejaVuSans-20" transform="translate(303.027344 0)"/>
      <use xlink:href="#DejaVuSans-73" transform="translate(334.814453 0)"/>
      <use xlink:href="#DejaVuSans-74" transform="translate(386.914062 0)"/>
      <use xlink:href="#DejaVuSans-61" transform="translate(426.123047 0)"/>
      <use xlink:href="#DejaVuSans-6e" transform="translate(487.402344 0)"/>
      <use xlink:href="#DejaVuSans-64" transform="translate(550.78125 0)"/>
      <use xlink:href="#DejaVuSans-61" transform="translate(614.257812 0)"/>
      <use xlink:href="#DejaVuSans-72" transform="translate(675.537109 0)"/>
      <use xlink:href="#DejaVuSans-64" transform="translate(714.900391 0)"/>
     </g>
    </g>
   </g>
  </g>
 </g>
 <defs>
  <clipPath id="pfd87661c9a">
   <rect x="43.78125" y="7.2" width="387.88" height="206.44"/>
  </clipPath>
 </defs>
</svg>
